<svg xmlns="http://www.w3.org/2000/svg" width="33" height="32"><path d="M23.305 14.647a7.162 7.162 0 00.388-7.317 7.035 7.035 0 00-6.225-3.774V1.778A1.77 1.77 0 0015.707 0a1.77 1.77 0 00-1.762 1.778v1.778H10.42V1.778A1.77 1.77 0 008.659 0a1.77 1.77 0 00-1.762 1.778v1.778H5.135a1.77 1.77 0 00-1.761 1.777 1.77 1.77 0 001.761 1.778h1.762V24.89H5.135a1.77 1.77 0 00-1.761 1.778 1.77 1.77 0 001.761 1.777h1.762v1.778A1.77 1.77 0 008.66 32a1.77 1.77 0 001.762-1.778v-1.778h3.524v1.778A1.77 1.77 0 0015.707 32a1.77 1.77 0 001.761-1.778v-1.778h3.524c3.437.01 6.376-2.49 6.95-5.91.572-3.419-1.389-6.755-4.637-7.887zM10.42 7.111h7.047c1.947 0 3.524 1.592 3.524 3.556 0 1.963-1.577 3.555-3.524 3.555H10.42v-7.11zM20.992 24.89H10.421v-7.111h10.571c1.946 0 3.524 1.592 3.524 3.555 0 1.964-1.578 3.556-3.524 3.556z" fill="#F7931A"/></svg>