<svg width="33" height="32" xmlns="http://www.w3.org/2000/svg"><path d="M16.022 0a1 1 0 00-.806.44l-8.94 13.245-.007.01a1 1 0 00.416 1.572l8.9 4.614a1 1 0 00.92 0l8.909-4.62a1 1 0 00.415-1.555L16.874.44a1 1 0 00-.852-.44zm-.976 4.268v5.813l-5.358 2.126 5.358-7.939zm1.999 0l5.357 7.939-5.357-2.126V4.268zm-2 7.965v5.116l-5.59-2.9 5.59-2.216zm2 0l5.59 2.216-5.59 2.9v-5.116zm8.01 5.76a1 1 0 00-.454.103l-8.556 4.212-8.555-4.212a1 1 0 00-1.24 1.497l8.927 11.903a1 1 0 001.734.004l8.93-11.907a1 1 0 00-.786-1.6zm-14.702 3.741l4.693 2.31v3.946l-4.693-6.256zm11.384 0l-4.692 6.256v-3.945l4.692-2.31z" fill="#6015A8"/></svg>