<svg width="33" height="32" xmlns="http://www.w3.org/2000/svg"><path d="M15.397.002a2.213 2.213 0 00-2.247 1.655l-3.275 12.23-5.512 1.478a2.2 2.2 0 00-1.581 1.547 2.155 2.155 0 00.587 2.115c.568.55 1.393.758 2.16.544l3.044-.814-2.816 10.51a2.15 2.15 0 00.39 1.884c.42.535 1.068.849 1.756.849h19.221c.8.01 1.544-.402 1.947-1.081a2.148 2.148 0 000-2.198 2.226 2.226 0 00-1.947-1.08H10.78l2.735-10.21 8.28-2.22a2.2 2.2 0 001.58-1.546 2.155 2.155 0 00-.587-2.115 2.245 2.245 0 00-2.16-.544l-5.81 1.558 2.624-9.8a2.15 2.15 0 00-.343-1.867 2.229 2.229 0 00-1.701-.895z" fill="#345D9D"/></svg>