<svg width="128" height="128" xmlns="http://www.w3.org/2000/svg"><defs><linearGradient x1="125.518%" y1="38.512%" x2="26.492%" y2="38.512%" id="a"><stop stop-color="#3F3BFF" offset="0%"/><stop stop-color="#09BE8B" offset="100%"/></linearGradient><linearGradient x1="0%" y1="49.046%" x2="100%" y2="50.954%" id="b"><stop stop-color="#22BBFB" offset="0%"/><stop stop-color="#476FE1" offset="49.995%"/><stop stop-color="#8B65FE" offset="100%"/></linearGradient></defs><g fill="none"><path d="M46.825 56.478h-17.11V20.766a8.555 8.555 0 018.555-8.555h4.128a9.143 9.143 0 017.173 3.473l25.403 32.139a3.048 3.048 0 005.439-1.89v-35.7a1.598 1.598 0 012.78-1.075 2.802 2.802 0 004.59-.657l2.333-4.78a2.819 2.819 0 014.612-.668 10.648 10.648 0 012.796 7.192v57.029l-32.692-3.011L52.27 48.249a3.048 3.048 0 00-5.446 1.88v6.349z" fill="url(#a)" transform="translate(0 6)"/><path d="M.592 71.984c25.269-4.43 46.151-7.056 62.648-7.879 15.641-.78 35.675 1.647 60.1 7.28a4.544 4.544 0 013.348 5.68 4.24 4.24 0 01-5.657 2.767c-13.415-5.387-27.469-9.112-42.16-11.178-16.197-2.276-42.188-.773-77.974 4.51a.67.67 0 01-.745-.494.554.554 0 01.44-.686z" fill="url(#b)" transform="translate(0 6)"/><path d="M29.714 111.424V62.478h17.111v49.176c0 2.72-1.055 5.335-2.944 7.293a2.803 2.803 0 01-4.598-.852l-2.099-4.952a2.728 2.728 0 00-4.607-.682 1.62 1.62 0 01-2.863-1.037z" fill="#09BE8B"/></g></svg>