<svg width="32" height="33" xmlns="http://www.w3.org/2000/svg"><path d="M32 16.457c0 8.836-7.163 16-16 16s-16-7.164-16-16c0-8.837 7.163-16 16-16s16 7.163 16 16zm-20.534 6.367H8.361c-.653 0-.975 0-1.171-.126a.79.79 0 01-.358-.617c-.012-.232.15-.515.472-1.081L14.97 7.486c.326-.574.49-.861.7-.967a.791.791 0 01.715 0c.208.106.373.393.7.967l1.575 2.751.008.014c.353.616.531.928.61 1.256.086.357.086.735 0 1.092-.08.33-.256.645-.614 1.27l-4.027 7.12-.01.017c-.355.621-.535.936-.784 1.173a2.33 2.33 0 01-.955.554c-.326.09-.692.09-1.423.09zm7.842 0h4.449c.656 0 .987 0 1.183-.13a.787.787 0 00.358-.62c.011-.225-.146-.497-.455-1.03l-.033-.056-2.228-3.812-.026-.043c-.313-.53-.47-.797-.674-.9a.783.783 0 00-.711 0c-.205.105-.37.384-.696.947l-2.22 3.812-.008.013c-.326.561-.488.842-.476 1.072a.796.796 0 00.357.621c.193.126.523.126 1.18.126z" fill="#E84142" fill-rule="evenodd"/></svg>