<svg width="32" height="33" xmlns="http://www.w3.org/2000/svg"><g fill="none" fill-rule="evenodd"><path d="M16 .457c8.837 0 16 7.162 16 16 0 8.837-7.163 16-16 16s-16-7.163-16-16c0-8.838 7.163-16 16-16z" fill="#F0B90B"/><path d="M18.099 23.69v2.465l-2.104 1.239-2.094-1.239V23.69l2.094 1.238 2.104-1.238zM6.7 15.22l2.093 1.237.011 4.23 3.595 2.116v2.477L6.7 21.937V15.22zm18.599-.002v6.718L19.6 25.278v-2.477l3.594-2.114.011-4.23 2.094-1.239zm-5.701-3.354l2.104 1.239.002 2.477-3.605 2.115v4.241l-2.094 1.227-2.093-1.227v-4.241l-3.605-2.115v-2.477l2.102-1.239 3.584 2.126 3.605-2.126zm-9.293 5.47l2.094 1.238v2.465l-2.094-1.227v-2.477zm11.388 0v2.476L19.6 21.037v-2.465l2.094-1.239zm-12.9-7.585l2.103 1.238-2.103 1.239v2.465L6.7 13.453v-2.466L8.794 9.75zm14.4 0l2.105 1.238v2.466l-2.104 1.238v-2.465L21.1 10.987l2.094-1.238zm-7.2 0l2.105 1.238-2.104 1.239-2.094-1.239 2.094-1.238zm0-4.23l5.7 3.354-2.094 1.239-3.605-2.126-3.595 2.126-2.094-1.239 5.689-3.354z" fill="#FFF" fill-rule="nonzero"/></g></svg>