<svg xmlns="http://www.w3.org/2000/svg" xmlns:xlink="http://www.w3.org/1999/xlink"><defs><symbol viewBox="0 0 10 10" id="icons-arrow-down"><path d="M9.754 4.408a.832.832 0 0 0-1.183 0l-2.74 2.75V.833a.833.833 0 1 0-1.664 0v6.325l-2.74-2.75A.836.836 0 1 0 .245 5.592l4.163 4.166c.08.076.173.135.275.175.201.09.431.09.633 0a.833.833 0 0 0 .274-.175l4.164-4.166a.834.834 0 0 0 0-1.184z" fill-rule="evenodd"/></symbol><symbol viewBox="0 0 20 20" id="icons-arrow-right"><path d="M19.875 9.366a1.665 1.665 0 0 0-.35-.55L11.188.49a1.676 1.676 0 0 0-2.801.75 1.67 1.67 0 0 0 .433 1.614l5.503 5.48H1.667a1.666 1.666 0 1 0 0 3.33h12.656L8.82 17.143a1.664 1.664 0 0 0 0 2.364 1.668 1.668 0 0 0 2.368 0l8.337-8.326c.152-.158.27-.345.35-.55a1.66 1.66 0 0 0 0-1.265z"/></symbol><symbol viewBox="0 0 16 16" id="icons-arrow-up-double"><path d="M8.934 8.789a1.548 1.548 0 0 0-2.182 0L2.14 13.338a1.53 1.53 0 0 0-.031 2.183 1.58 1.58 0 0 0 2.213.03l3.52-3.548 3.52 3.548a1.548 1.548 0 0 0 2.182 0 1.504 1.504 0 0 0 0-2.153l-4.61-4.61zM4.324 7.15l3.519-3.488 3.52 3.488a1.548 1.548 0 0 0 2.182 0 1.506 1.506 0 0 0 0-2.153L8.935.448a1.548 1.548 0 0 0-2.183 0L2.14 4.999a1.508 1.508 0 0 0 0 2.153c.602.594 1.58.594 2.182 0z"/></symbol><symbol viewBox="0 0 20 20" id="icons-autocompound"><path d="M1 9a1 1 0 0 1 1 1 8 8 0 0 0 13.78 5.51h-2.4a1 1 0 0 1 0-2h4.53a1 1 0 0 1 .97.99V19a1 1 0 0 1-2 0v-1.77A10 10 0 0 1 0 10a1 1 0 0 1 1-1zm13.335 2.47.095.016a.49.49 0 0 1 .117.898l-4.406 2.55a.489.489 0 0 1-.49 0l-4.406-2.55a.491.491 0 0 1 .49-.849l4.16 2.389 4.162-2.37v-.019a.489.489 0 0 1 .373-.049zm0-1.962.095.016a.49.49 0 0 1 .117.898l-4.406 2.55a.489.489 0 0 1-.49 0l-4.406-2.55a.491.491 0 0 1 .49-.849l4.16 2.389 4.162-2.37v-.019a.489.489 0 0 1 .373-.049zM9.65 5.066a.489.489 0 0 1 .49 0l4.406 2.545a.49.49 0 0 1 0 .849l-4.406 2.55a.489.489 0 0 1-.49 0L5.245 8.46a.49.49 0 0 1 0-.849zM10 0a10 10 0 0 1 10 10 1 1 0 0 1-2 0A8 8 0 0 0 4.22 4.5h2.4a1 1 0 1 1 0 2h-4.5a1 1 0 0 1-1-1V1a1 1 0 1 1 2 0v1.77A10 10 0 0 1 10 0zm-.104 6.076L6.469 8.038 9.896 10l3.427-1.962-3.427-1.962z"/></symbol><symbol viewBox="0 0 20 20" id="icons-bolt"><path d="M17.392 7.581a.99.99 0 0 0-.882-.548h-4.952V1.048a.997.997 0 0 0-.683-.998.986.986 0 0 0-1.11.36L1.844 11.381a1.004 1.004 0 0 0-.08.997.99.99 0 0 0 .882.639h4.952v5.984a.997.997 0 0 0 .99.998.988.988 0 0 0 .802-.409l7.924-10.972c.217-.304.248-.704.079-1.038zm-7.814 8.35V12.02a.994.994 0 0 0-.99-.997H4.625L9.578 4.12v3.91c0 .55.443.998.99.998h3.962L9.578 15.93z"/></symbol><symbol viewBox="0 0 24 24" id="icons-book"><path d="M22.99.225A15.852 15.852 0 0 0 20.388 0 15.62 15.62 0 0 0 12 2.433 15.621 15.621 0 0 0 3.611.059c-.872.004-1.741.08-2.6.226A1.19 1.19 0 0 0 .016 1.47v14.24c-.005.353.149.69.42.92.27.229.63.327.982.267 3.47-.595 7.034.222 9.887 2.266l.144.083h.132c.268.11.57.11.838 0h.132l.144-.083a13.161 13.161 0 0 1 9.887-2.397c.351.06.711-.038.982-.267.271-.23.425-.567.42-.92V1.34A1.19 1.19 0 0 0 22.99.226zm-12.188 15.77a15.547 15.547 0 0 0-7.19-1.755h-1.2V2.373c.4-.023.8-.023 1.2 0 2.556-.003 5.057.74 7.19 2.136v11.487zm10.785-1.708H20.39a15.547 15.547 0 0 0-7.19 1.756V4.51a13.108 13.108 0 0 1 7.19-2.136c.399-.023.8-.023 1.198 0v11.914zm1.402 4.925a15.852 15.852 0 0 0-2.6-.226A15.62 15.62 0 0 0 12 21.419a15.62 15.62 0 0 0-8.389-2.433c-.872.004-1.741.079-2.6.226a1.2 1.2 0 0 0-.784.477 1.178 1.178 0 0 0-.211.887 1.2 1.2 0 0 0 1.402.938c3.47-.595 7.034.222 9.887 2.266.416.293.974.293 1.39 0a13.164 13.164 0 0 1 9.887-2.266 1.198 1.198 0 0 0 1.402-.938 1.178 1.178 0 0 0-.21-.887 1.2 1.2 0 0 0-.785-.477z"/></symbol><symbol viewBox="0 0 25 24" id="icons-business"><path d="M20.422 5.342h-3.6v-1.21c0-2.006-1.612-3.632-3.6-3.632h-2.4c-1.988 0-3.6 1.626-3.6 3.632v1.21h-3.6c-.955 0-1.87.383-2.546 1.064A3.648 3.648 0 0 0 .022 8.974v10.894c0 2.006 1.612 3.632 3.6 3.632h16.8c1.988 0 3.6-1.626 3.6-3.632V8.974c0-2.006-1.612-3.632-3.6-3.632zm-10.8-1.21c0-.669.537-1.21 1.2-1.21h2.4c.663 0 1.2.541 1.2 1.21v1.21h-4.8v-1.21zm12 15.736c0 .669-.537 1.21-1.2 1.21h-16.8c-.663 0-1.2-.541-1.2-1.21v-6.657c1.17.468 2.374.848 3.6 1.137v.715c0 .668.537 1.21 1.2 1.21.663 0 1.2-.542 1.2-1.21v-.255a27.27 27.27 0 0 0 3.6.255 27.364 27.364 0 0 0 3.6-.255v.255c0 .668.537 1.21 1.2 1.21.663 0 1.2-.542 1.2-1.21v-.715c1.226-.289 2.43-.67 3.6-1.137v6.657zm0-9.309a24.32 24.32 0 0 1-3.6 1.211v-.375c0-.669-.537-1.21-1.2-1.21-.663 0-1.2.541-1.2 1.21v.896a23.925 23.925 0 0 1-7.2 0v-.896c0-.669-.537-1.21-1.2-1.21-.663 0-1.2.541-1.2 1.21v.4a24.32 24.32 0 0 1-3.6-1.211v-1.61c0-.669.537-1.21 1.2-1.21h16.8c.663 0 1.2.541 1.2 1.21v1.585z"/></symbol><symbol viewBox="0 0 49 48" id="icons-calculator"><path d="M25.538 35.542a2.168 2.168 0 0 0-.346-.262 1.21 1.21 0 0 0-.369-.196 1.294 1.294 0 0 0-.411-.131 2.002 2.002 0 0 0-1.235.13c-.545.199-.973.63-1.17 1.179a1.84 1.84 0 0 0-.174.829c-.003.284.048.565.152.829.126.26.286.503.477.72.409.408.962.636 1.538.633a1.81 1.81 0 0 0 .823-.175 2.49 2.49 0 0 0 .715-.458 2.19 2.19 0 0 0 .629-1.55 2.196 2.196 0 0 0-.174-.828 2.184 2.184 0 0 0-.455-.72zm-9.013-8.99a1.21 1.21 0 0 0-.368-.196 1.295 1.295 0 0 0-.412-.174 1.85 1.85 0 0 0-.845 0l-.39.13-.39.197-.325.262a2.3 2.3 0 0 0-.628 1.593 2.19 2.19 0 0 0 .628 1.549c.21.192.452.347.715.458.667.276 1.426.2 2.025-.203.6-.402.961-1.079.965-1.804a2.3 2.3 0 0 0-.628-1.55l-.347-.261zm.347 8.99a2.165 2.165 0 0 0-.715-.458 2.153 2.153 0 0 0-1.257-.175l-.39.131c-.138.048-.27.114-.39.196-.114.08-.222.168-.325.262a2.184 2.184 0 0 0-.455.72 2.064 2.064 0 0 0 0 1.658c.11.265.264.508.455.72a2.16 2.16 0 0 0 1.538.677 1.81 1.81 0 0 0 .824-.175 2.49 2.49 0 0 0 .715-.458 2.53 2.53 0 0 0 .455-.72 2.064 2.064 0 0 0 0-1.658 2.184 2.184 0 0 0-.455-.72zm6.305-9.186c-.266.104-.51.26-.715.459a2.3 2.3 0 0 0-.629 1.549c.004.725.366 1.402.965 1.804.6.403 1.359.479 2.025.203a2.49 2.49 0 0 0 .715-.458 2.19 2.19 0 0 0 .629-1.55 2.3 2.3 0 0 0-.629-1.548 2.156 2.156 0 0 0-2.361-.459zm11.028 9.186a2.49 2.49 0 0 0-.715-.458 2.156 2.156 0 0 0-2.362.458 2.184 2.184 0 0 0-.455.72 2.064 2.064 0 0 0 0 1.658c.11.264.264.508.455.72.41.408.963.636 1.539.633a1.81 1.81 0 0 0 .823-.175 2.49 2.49 0 0 0 .715-.458 2.193 2.193 0 0 0 .455-2.378 2.184 2.184 0 0 0-.455-.72zM32.667 8.727H15.333a2.174 2.174 0 0 0-2.166 2.182v8.727c0 1.205.97 2.182 2.166 2.182h17.334a2.174 2.174 0 0 0 2.166-2.182V10.91c0-1.205-.97-2.182-2.166-2.182zM30.5 17.455h-13V13.09h13v4.364zM37 0H11C7.41 0 4.5 2.93 4.5 6.545v34.91C4.5 45.07 7.41 48 11 48h26c3.59 0 6.5-2.93 6.5-6.545V6.545C43.5 2.93 40.59 0 37 0zm2.167 41.455c0 1.205-.97 2.181-2.167 2.181H11a2.174 2.174 0 0 1-2.167-2.181V6.545c0-1.205.97-2.181 2.167-2.181h26c1.197 0 2.167.976 2.167 2.181v34.91zm-5.309-14.902a1.21 1.21 0 0 0-.368-.197 1.294 1.294 0 0 0-.412-.13 1.85 1.85 0 0 0-.845 0l-.39.13-.39.197-.325.262a2.3 2.3 0 0 0-.628 1.549c.004.725.365 1.402.965 1.804.6.403 1.358.479 2.025.203a2.49 2.49 0 0 0 .715-.458 2.19 2.19 0 0 0 .628-1.55 2.3 2.3 0 0 0-.628-1.548l-.347-.262z" fill="#2F06BB" fill-rule="evenodd"/></symbol><symbol viewBox="0 0 21 20" id="icons-calendar"><path d="M10.5 12a1 1 0 1 0 0-2 1 1 0 0 0 0 2zm5 0a1 1 0 1 0 0-2 1 1 0 0 0 0 2zm-5 4a1 1 0 1 0 0-2 1 1 0 0 0 0 2zm5 0a1 1 0 1 0 0-2 1 1 0 0 0 0 2zm-10-4a1 1 0 1 0 0-2 1 1 0 0 0 0 2zm12-10h-1V1a1 1 0 0 0-2 0v1h-8V1a1 1 0 1 0-2 0v1h-1a3 3 0 0 0-3 3v12a3 3 0 0 0 3 3h14a3 3 0 0 0 3-3V5a3 3 0 0 0-3-3zm1 15a1 1 0 0 1-1 1h-14a1 1 0 0 1-1-1V8h16v9zm0-11h-16V5a1 1 0 0 1 1-1h14a1 1 0 0 1 1 1v1zm-13 10a1 1 0 1 0 0-2 1 1 0 0 0 0 2z"/></symbol><symbol viewBox="0 0 16 16" id="icons-check"><path d="M15.633 2.338a1.137 1.137 0 0 0-1.616 0l-8.482 8.514-3.563-3.584a1.161 1.161 0 0 0-1.937.557c-.101.404.021.832.32 1.121l4.372 4.383a1.137 1.137 0 0 0 1.617 0l9.29-9.314a1.143 1.143 0 0 0 0-1.677z"/></symbol><symbol viewBox="0 0 20 20" id="icons-check-double"><path d="M18.925 4.583c.278 0 .544.113.74.313a1.063 1.063 0 0 1 0 1.552l-8.728 8.656a1.034 1.034 0 0 1-1.479 0l-.734-.809 9.462-9.4c.196-.2.462-.312.74-.312zm-5.365 0c.277 0 .543.113.739.313a1.063 1.063 0 0 1 0 1.552l-8.497 8.615a1.034 1.034 0 0 1-1.479 0L.325 11.009A1.089 1.089 0 0 1 .032 9.97c.092-.374.374-.67.739-.776a1.054 1.054 0 0 1 1.032.262l3.26 3.315 7.757-7.876c.196-.2.462-.313.74-.313z"/></symbol><symbol viewBox="0 0 32 32" id="icons-clock"><path d="M20.957 17.014 17.6 15.077V8a1.6 1.6 0 1 0-3.2 0v8c0 .572.305 1.1.8 1.386l4.157 2.4a1.6 1.6 0 1 0 1.6-2.772zM16 0C7.163 0 0 7.163 0 16s7.163 16 16 16 16-7.163 16-16C31.99 7.168 24.832.01 16 0zm0 28.8C8.93 28.8 3.2 23.07 3.2 16S8.93 3.2 16 3.2 28.8 8.93 28.8 16c-.008 7.066-5.734 12.792-12.8 12.8z"/></symbol><symbol viewBox="0 0 20 20" id="icons-close"><path d="m11.761 9.999 7.87-7.858A1.254 1.254 0 0 0 17.857.367L10 8.237 2.143.368A1.254 1.254 0 1 0 .37 2.141L8.24 10 .37 17.858a1.25 1.25 0 0 0 0 1.773 1.249 1.249 0 0 0 1.774 0L10 11.76l7.857 7.87a1.249 1.249 0 0 0 1.774 0 1.25 1.25 0 0 0 0-1.773l-7.87-7.858z"/></symbol><symbol viewBox="0 0 24 24" id="icons-cloud"><path d="M19.719 8.608c-1.509-3.506-5.145-5.561-8.886-5.023-3.74.539-6.666 3.538-7.15 7.33-2.368.575-3.937 2.853-3.649 5.3.288 2.449 2.342 4.29 4.778 4.285h13.203c2.975-.008 5.495-2.222 5.922-5.202.427-2.98-1.367-5.827-4.218-6.69zm-1.704 9.463H4.812c-1.326 0-2.401-1.088-2.401-2.43s1.075-2.43 2.4-2.43c.663 0 1.2-.543 1.2-1.214.007-2.967 2.13-5.495 5.023-5.98 2.892-.484 5.706 1.218 6.657 4.024.143.42.502.728.936.802 1.823.34 3.092 2.026 2.934 3.895-.158 1.869-1.693 3.311-3.546 3.333z"/></symbol><symbol viewBox="0 0 20 20" id="icons-coins"><path d="M19.22 10.208a2.978 2.978 0 0 0 .78-1.99 2.993 2.993 0 0 0-3-2.987h-5.18a2.975 2.975 0 0 0-.377-2.716A3.004 3.004 0 0 0 9 1.25H3c-1.657 0-3 1.337-3 2.986a2.97 2.97 0 0 0 .78 1.99 2.976 2.976 0 0 0 0 3.982 2.976 2.976 0 0 0 0 3.982A2.978 2.978 0 0 0 0 16.18a2.993 2.993 0 0 0 3 2.987h14a3 3 0 0 0 2.726-1.775 2.975 2.975 0 0 0-.506-3.202 2.976 2.976 0 0 0 0-3.982zM9 17.176H3c-.552 0-1-.446-1-.995 0-.55.448-.996 1-.996h6c.552 0 1 .446 1 .996s-.448.995-1 .995zm0-3.982H3c-.552 0-1-.445-1-.995s.448-.995 1-.995h6c.552 0 1 .445 1 .995s-.448.995-1 .995zm0-3.981H3c-.552 0-1-.446-1-.995 0-.55.448-.996 1-.996h6c.552 0 1 .446 1 .996s-.448.995-1 .995zm0-3.982H3c-.552 0-1-.445-1-.995s.448-.995 1-.995h6c.552 0 1 .445 1 .995s-.448.995-1 .995zm8.69 11.656a.932.932 0 0 1-.69.289h-5.18a2.84 2.84 0 0 0 0-1.99H17c.552 0 1 .445 1 .995a.993.993 0 0 1-.31.706zm0-3.981a.932.932 0 0 1-.69.288h-5.18a2.84 2.84 0 0 0 0-1.99H17c.552 0 1 .445 1 .995a.993.993 0 0 1-.31.707zm0-3.982a.932.932 0 0 1-.69.289h-5.18a2.84 2.84 0 0 0 0-1.99H17c.552 0 1 .445 1 .995a.993.993 0 0 1-.31.706z" fill-rule="evenodd"/></symbol><symbol viewBox="0 0 16 16" id="icons-comment"><path d="M8.011 0C3.6 0 .023 3.582.023 8a7.918 7.918 0 0 0 1.805 5.063l-1.598 1.6a.8.8 0 0 0-.168.872.799.799 0 0 0 .76.464h7.19C12.422 16 16 12.418 16 8c0-4.417-3.577-8-7.989-8zm0 14.4H2.747l.743-.745a.8.8 0 0 0 0-1.128 6.406 6.406 0 0 1-.8-8.08 6.386 6.386 0 0 1 7.758-2.362A6.402 6.402 0 0 1 8.011 14.4z"/></symbol><symbol viewBox="0 0 20 20" id="icons-copy"><path d="M18.75 6.94a1.315 1.315 0 0 0-.06-.27v-.09a1.07 1.07 0 0 0-.189-.28L12.53.3a1.065 1.065 0 0 0-.279-.19.317.317 0 0 0-.09 0 .873.873 0 0 0-.328-.11H7.801a2.993 2.993 0 0 0-2.986 3v1h-.996A2.993 2.993 0 0 0 .833 7v10c0 1.657 1.337 3 2.986 3h7.963a2.993 2.993 0 0 0 2.987-3v-1h.995a2.993 2.993 0 0 0 2.986-3V6.94zm-5.972-3.53L15.356 6h-1.583a.998.998 0 0 1-.995-1V3.41zm0 13.59c0 .552-.446 1-.996 1H3.82a.998.998 0 0 1-.995-1V7c0-.552.446-1 .995-1h.996v7c0 1.657 1.337 3 2.986 3h4.977v1zm3.981-4c0 .552-.445 1-.995 1H7.8a.998.998 0 0 1-.995-1V3c0-.552.445-1 .995-1h2.986v3c0 1.657 1.337 3 2.986 3h2.986v5z"/></symbol><symbol viewBox="0 0 12 12" id="icons-crown"><path d="m0 2.288 2.981 2.965 3.02-3.003L9.02 5.253 12 2.29v5.576a1.89 1.89 0 0 1-1.895 1.885h-8.21A1.89 1.89 0 0 1 0 7.865V2.288zm10.737 3.026v2.551a.63.63 0 0 1-.632.629h-8.21a.63.63 0 0 1-.632-.629V5.314l1.718 1.709 3.02-3.004L9.02 7.023l1.717-1.709z"/></symbol><symbol viewBox="0 0 24 24" id="icons-day"><path d="m4.368 18-.852.852a1.2 1.2 0 0 0 0 1.692 1.2 1.2 0 0 0 1.692 0l.852-.852A1.2 1.2 0 0 0 4.368 18zM3.6 12a1.2 1.2 0 0 0-1.2-1.2H1.2a1.2 1.2 0 1 0 0 2.4h1.2A1.2 1.2 0 0 0 3.6 12zM12 3.6a1.2 1.2 0 0 0 1.2-1.2V1.2a1.2 1.2 0 1 0-2.4 0v1.2A1.2 1.2 0 0 0 12 3.6zM4.368 6.06a1.2 1.2 0 0 0 1.692 0 1.2 1.2 0 0 0 0-1.692l-.852-.852a1.2 1.2 0 0 0-1.692 1.692l.852.852zm14.4.348a1.2 1.2 0 0 0 .84-.348l.852-.852a1.2 1.2 0 1 0-1.692-1.692L18 4.368a1.2 1.2 0 0 0 0 1.692 1.2 1.2 0 0 0 .792.348h-.024zM22.8 10.8h-1.2a1.2 1.2 0 1 0 0 2.4h1.2a1.2 1.2 0 1 0 0-2.4zM12 20.4a1.2 1.2 0 0 0-1.2 1.2v1.2a1.2 1.2 0 1 0 2.4 0v-1.2a1.2 1.2 0 0 0-1.2-1.2zm7.632-2.4A1.2 1.2 0 0 0 18 19.632l.852.852a1.2 1.2 0 0 0 1.692 0 1.2 1.2 0 0 0 0-1.692L19.632 18zM12 5.4a6.6 6.6 0 1 0 6.6 6.6A6.612 6.612 0 0 0 12 5.4zm0 10.8a4.2 4.2 0 1 1 0-8.4 4.2 4.2 0 0 1 0 8.4z"/></symbol><symbol viewBox="0 0 24 24" id="icons-delete"><path d="M9.861 19.2c.66 0 1.195-.537 1.195-1.2v-7.2c0-.663-.535-1.2-1.195-1.2s-1.194.537-1.194 1.2V18c0 .663.534 1.2 1.194 1.2zM21.806 4.8h-4.778V3.6c0-1.988-1.605-3.6-3.584-3.6h-2.388a3.592 3.592 0 0 0-3.584 3.6v1.2H2.694C2.034 4.8 1.5 5.337 1.5 6c0 .663.535 1.2 1.194 1.2H3.89v13.2c0 1.988 1.604 3.6 3.583 3.6h9.556a3.592 3.592 0 0 0 3.583-3.6V7.2h1.195C22.466 7.2 23 6.663 23 6c0-.663-.535-1.2-1.194-1.2zM9.86 3.6c0-.663.535-1.2 1.195-1.2h2.388c.66 0 1.195.537 1.195 1.2v1.2H9.86V3.6zm8.361 16.8c0 .663-.535 1.2-1.194 1.2H7.472c-.66 0-1.194-.537-1.194-1.2V7.2h11.944v13.2zm-3.583-1.2c.66 0 1.194-.537 1.194-1.2v-7.2c0-.663-.534-1.2-1.194-1.2-.66 0-1.195.537-1.195 1.2V18c0 .663.535 1.2 1.195 1.2z"/></symbol><symbol viewBox="0 0 20 20" id="icons-discord"><path d="M16.942 3.374a16.34 16.34 0 0 0-4.126-1.29c-.178.32-.386.75-.529 1.092a15.214 15.214 0 0 0-4.573 0 11.66 11.66 0 0 0-.535-1.093c-1.448.25-2.834.69-4.129 1.295C.44 7.307-.269 11.138.085 14.916a16.523 16.523 0 0 0 5.06 2.582c.408-.558.771-1.152 1.084-1.777a10.676 10.676 0 0 1-1.706-.827c.143-.106.283-.216.418-.33 3.29 1.533 6.866 1.533 10.118 0 .137.114.277.224.418.33a10.65 10.65 0 0 1-1.71.829c.313.623.675 1.219 1.084 1.777a16.49 16.49 0 0 0 5.064-2.584c.415-4.379-.71-8.175-2.973-11.542zm-10.264 9.22c-.988 0-1.798-.92-1.798-2.038 0-1.118.792-2.038 1.798-2.038 1.005 0 1.815.918 1.798 2.038.001 1.119-.793 2.037-1.798 2.037zm6.644 0c-.988 0-1.798-.92-1.798-2.038 0-1.118.793-2.038 1.798-2.038s1.816.918 1.798 2.038c0 1.119-.793 2.037-1.798 2.037z"/></symbol><symbol viewBox="0 0 81 80" id="icons-empty"><path d="M64.5 0c-8.837 0-16 7.163-16 16s7.163 16 16 16 16-7.163 16-16a16 16 0 0 0-16-16zm0 24a8 8 0 1 1 0-16 8 8 0 0 1 0 16zm-12 48h-8v-8a4 4 0 1 0-8 0v8h-8V58.48l13.8-6.92A4 4 0 0 0 44.5 48V32a4 4 0 1 0-8 0v13.52l-8 4V24a4 4 0 1 0-8 0v33.52l-8-4V44a4 4 0 1 0-8 0v12a4 4 0 0 0 2.2 3.56l13.8 6.92V72h-16a4 4 0 1 0 0 8h48a4 4 0 1 0 0-8z" fill-rule="evenodd"/></symbol><symbol viewBox="0 0 20 20" id="icons-envelope"><path d="M17 2.083H3c-1.657 0-3 1.33-3 2.97v9.895c0 1.64 1.343 2.969 3 2.969h14c1.657 0 3-1.33 3-2.97V5.053c0-1.64-1.343-2.969-3-2.969zm-.41 1.98L10.71 9.88a1.005 1.005 0 0 1-1.42 0L3.41 4.062h13.18zM18 14.947c0 .546-.448.99-1 .99H3c-.552 0-1-.444-1-.99v-9.49l5.88 5.819a3.022 3.022 0 0 0 4.24 0L18 5.457v9.49z"/></symbol><symbol viewBox="0 0 20 20" id="icons-exclamation"><path d="M9.977 13.685c-.499 0-.903.41-.903.914s.404.913.903.913c.5 0 .904-.409.904-.913a.909.909 0 0 0-.904-.914zm9.644 1.343-7.276-12.79A2.707 2.707 0 0 0 9.977.834c-.983 0-1.889.538-2.368 1.406L.38 15.029a2.766 2.766 0 0 0-.028 2.745 2.707 2.707 0 0 0 2.342 1.393h14.569a2.706 2.706 0 0 0 2.376-1.373 2.766 2.766 0 0 0-.017-2.766zm-1.564 1.827a.902.902 0 0 1-.795.466H2.692a.902.902 0 0 1-.794-.466.922.922 0 0 1 0-.913l7.23-12.79a.903.903 0 0 1 .804-.497c.34 0 .65.192.805.497l7.275 12.79a.92.92 0 0 1 .045.931v-.018zM9.977 6.377a.909.909 0 0 0-.903.914v3.654c0 .504.404.913.903.913.5 0 .904-.409.904-.913V7.29a.909.909 0 0 0-.904-.914z"/></symbol><symbol viewBox="0 0 20 20" id="icons-facebook"><path d="M13.115 3.32H15V.14A26.252 26.252 0 0 0 12.253 0C9.526 0 7.661 1.66 7.661 4.7v2.62H4.583v3.56h3.078V20h3.69v-9.12h3.068l.46-3.56h-3.528V5.05c0-1.05.28-1.73 1.764-1.73z"/></symbol><symbol viewBox="0 0 24 24" id="icons-farm"><path d="M18.792 7.378a1.2 1.2 0 0 0 .84-.346l.852-.848a1.191 1.191 0 0 0-.5-2.069 1.203 1.203 0 0 0-1.192.385L18 5.348a1.19 1.19 0 0 0 .792 2.03zM12 4.583c.663 0 1.2-.534 1.2-1.194V2.194C13.2 1.534 12.663 1 12 1c-.663 0-1.2.535-1.2 1.194V3.39c0 .66.537 1.194 1.2 1.194zM2.4 11.75H1.2c-.663 0-1.2.535-1.2 1.194 0 .66.537 1.195 1.2 1.195h1.2c.663 0 1.2-.535 1.2-1.195s-.537-1.194-1.2-1.194zm1.968-4.718a1.203 1.203 0 0 0 1.692 0 1.19 1.19 0 0 0 0-1.684L5.208 4.5a1.204 1.204 0 0 0-1.63.062 1.19 1.19 0 0 0-.062 1.622l.852.848zM22.8 11.75h-1.2c-.663 0-1.2.535-1.2 1.194 0 .66.537 1.195 1.2 1.195h1.2c.663 0 1.2-.535 1.2-1.195s-.537-1.194-1.2-1.194zm-12 8.361H7.2c-.663 0-1.2.535-1.2 1.195S6.537 22.5 7.2 22.5h3.6c.663 0 1.2-.535 1.2-1.194 0-.66-.537-1.195-1.2-1.195zm8.4-4.778h-1.056c.303-.76.458-1.57.456-2.389 0-3.628-2.955-6.569-6.6-6.569-3.645 0-6.6 2.941-6.6 6.57a6.412 6.412 0 0 0 .456 2.388H4.8c-.663 0-1.2.535-1.2 1.195s.537 1.194 1.2 1.194h14.4c.663 0 1.2-.535 1.2-1.194 0-.66-.537-1.195-1.2-1.195zm-3.78 0H8.58a4.096 4.096 0 0 1-.78-2.389c0-2.308 1.88-4.18 4.2-4.18 2.32 0 4.2 1.872 4.2 4.18a4.096 4.096 0 0 1-.78 2.39zm1.38 4.778h-1.2c-.663 0-1.2.535-1.2 1.195s.537 1.194 1.2 1.194h1.2c.663 0 1.2-.535 1.2-1.194 0-.66-.537-1.195-1.2-1.195z"/></symbol><symbol viewBox="0 0 24 24" id="icons-gift"><path d="M19.417 6.005h-.418a4.187 4.187 0 0 0-2.18-5.696 4.156 4.156 0 0 0-4.569.969 4.156 4.156 0 0 0-4.568-.97 4.187 4.187 0 0 0-2.18 5.697h-.419A3.591 3.591 0 0 0 1.5 9.604v2.4c0 .662.535 1.199 1.194 1.199H3.89V20.4A3.59 3.59 0 0 0 7.472 24h9.556a3.591 3.591 0 0 0 3.583-3.6v-7.197h1.195c.66 0 1.194-.537 1.194-1.2v-2.4a3.59 3.59 0 0 0-3.583-3.598zM11.056 21.6H7.472c-.66 0-1.194-.537-1.194-1.2v-7.198h4.778V21.6zm0-10.798H3.889v-1.2c0-.662.535-1.199 1.194-1.199h5.973v2.4zm0-4.798H9.264c-.99 0-1.792-.806-1.792-1.8s.802-1.8 1.792-1.8 1.792.806 1.792 1.8v1.8zm2.388-1.8c0-.994.803-1.8 1.792-1.8.99 0 1.792.806 1.792 1.8s-.802 1.8-1.792 1.8h-1.792v-1.8zM18.222 20.4c0 .663-.535 1.2-1.194 1.2h-3.584v-8.398h4.778V20.4zm2.39-9.598h-7.168V8.404h5.973c.66 0 1.194.537 1.194 1.2v1.2z"/></symbol><symbol viewBox="0 0 24 24" id="icons-globe"><path d="M23.29 7.956v-.06A12.024 12.024 0 0 0 12 0 12.024 12.024 0 0 0 .71 7.896v.06a11.877 11.877 0 0 0 0 8.088v.06A12.024 12.024 0 0 0 12 24c5.046 0 9.555-3.153 11.29-7.896v-.06a11.877 11.877 0 0 0 0-8.088zM2.67 14.407a9.42 9.42 0 0 1 0-4.814h2.236a20.153 20.153 0 0 0 0 4.814H2.669zm.985 2.407H5.34a14.63 14.63 0 0 0 1.202 3.093 9.624 9.624 0 0 1-2.886-3.093zM5.34 7.186H3.655a9.625 9.625 0 0 1 2.85-3.093A14.631 14.631 0 0 0 5.34 7.186zm5.435 14.081a7.63 7.63 0 0 1-2.922-4.453h2.922v4.453zm0-6.86h-3.44a17.298 17.298 0 0 1 0-4.814h3.44v4.814zm0-7.221H7.852a7.63 7.63 0 0 1 2.922-4.453v4.453zm9.522 0h-1.683a14.63 14.63 0 0 0-1.202-3.093 9.624 9.624 0 0 1 2.885 3.093zm-7.118-4.453A7.63 7.63 0 0 1 16.1 7.186h-2.922V2.733zm0 18.534v-4.453H16.1a7.63 7.63 0 0 1-2.922 4.453zm3.44-6.86h-3.44V9.593h3.44a17.298 17.298 0 0 1 0 4.814zm.829 5.5c.517-.982.92-2.02 1.202-3.093h1.684a9.624 9.624 0 0 1-2.886 3.093zm3.835-5.5h-2.236c.098-.799.146-1.602.144-2.407a19.611 19.611 0 0 0-.144-2.407h2.236a9.42 9.42 0 0 1 0 4.814z"/></symbol><symbol viewBox="0 0 24 24" id="icons-graph"><path d="M5.455 13.09H1.09A1.09 1.09 0 0 0 0 14.183v8.727C0 23.512.488 24 1.09 24h4.365a1.09 1.09 0 0 0 1.09-1.09v-8.728a1.09 1.09 0 0 0-1.09-1.091zm-1.091 8.728H2.182v-6.545h2.182v6.545zm18.545-13.09h-4.364a1.09 1.09 0 0 0-1.09 1.09V22.91a1.09 1.09 0 0 0 1.09 1.091h4.364A1.09 1.09 0 0 0 24 22.91V9.817a1.09 1.09 0 0 0-1.09-1.09zm-1.09 13.09h-2.183V10.91h2.182v10.91zM14.181 0H9.818a1.09 1.09 0 0 0-1.09 1.09v21.82c0 .602.488 1.09 1.09 1.09h4.364a1.09 1.09 0 0 0 1.09-1.09V1.09A1.09 1.09 0 0 0 14.183 0zM13.09 21.818h-2.182V2.182h2.182v19.636z"/></symbol><symbol viewBox="0 0 24 24" id="icons-grow"><path d="M3 16.5A1.5 1.5 0 0 0 1.5 18v4.5a1.5 1.5 0 0 0 3 0V18A1.5 1.5 0 0 0 3 16.5zM9 12a1.5 1.5 0 0 0-1.5 1.5v9a1.5 1.5 0 0 0 3 0v-9A1.5 1.5 0 0 0 9 12zM21 0a1.5 1.5 0 0 0-1.5 1.5v21a1.5 1.5 0 0 0 3 0v-21A1.5 1.5 0 0 0 21 0zm-6 6a1.5 1.5 0 0 0-1.5 1.5v15a1.5 1.5 0 0 0 3 0v-15A1.5 1.5 0 0 0 15 6z"/></symbol><symbol viewBox="0 0 20 20" id="icons-heart"><path d="M18.19 3.064a6.34 6.34 0 0 0-8.168-.585C7.38.532 3.668.939 1.519 3.412a6.176 6.176 0 0 0 .335 8.468l6.006 6a3.023 3.023 0 0 0 4.244 0l6.006-6A6.19 6.19 0 0 0 20 7.49a6.188 6.188 0 0 0-1.81-4.425zm-1.411 7.398-6.006 5.95a1.006 1.006 0 0 1-1.422 0l-6.006-5.95a4.226 4.226 0 0 1 0-5.95 4.303 4.303 0 0 1 6.006 0 1.006 1.006 0 0 0 1.422 0 4.304 4.304 0 0 1 5.683.32 4.206 4.206 0 0 1 .323 5.63z"/></symbol><symbol viewBox="0 0 33 32" id="icons-help"><path d="M32.5 14.59v-.533l-.145-.967-.145-.629c0-.274-.129-.548-.209-.822a7.665 7.665 0 0 0-.21-.645 3.502 3.502 0 0 1-.112-.386v-.081a16.27 16.27 0 0 0-9.497-9.511h-.08l-.37-.113-.677-.21c-.241 0-.499-.129-.74-.193l-.74-.161-.741-.113c-.258 0-.499 0-.773-.097-.273-.097-.563 0-.837 0L16.404 0h-1.466c-.274 0-.515 0-.773.097l-.74.113-.74.16c-.242 0-.5.114-.741.194l-.676.21-.37.113h-.081a16.27 16.27 0 0 0-9.497 9.511v.08c-.03.132-.068.26-.113.387 0 .21-.145.42-.209.645a20.08 20.08 0 0 0-.21.822l-.144.63-.145.966v4.127l.145.968.145.628c0 .274.129.548.209.823.08.274.129.435.21.644.044.127.082.256.112.387a.694.694 0 0 1 0 .113 16.109 16.109 0 0 0 9.48 9.48h.081l.387.112.643.21.821.21.628.144.966.145h.531c.5 0 1.014.081 1.53.081.514 0 1.03 0 1.528-.08h.532l.965-.146.628-.145.821-.21.644-.209.386-.113h.08a16.109 16.109 0 0 0 9.482-9.479.694.694 0 0 1 0-.113c0-.129.08-.258.112-.387.033-.129.145-.419.21-.644.064-.226.145-.549.209-.823l.145-.628.145-.968v-.532c0-.5.08-1.015.08-1.531s.145-.903.145-1.403zM22.36 4.658a12.887 12.887 0 0 1 5.569 5.578l-4.604 1.612a8.28 8.28 0 0 0-2.64-2.644l1.674-4.546zM13.73 3.53c.338-.08.66-.128.982-.177h.387c.92-.097 1.848-.097 2.768 0h.387c.321 0 .643.097.981.177h.097l-1.61 4.611a7.217 7.217 0 0 0-1.32-.08 7.02 7.02 0 0 0-1.175.096l-1.61-4.61.113-.017zm-3.12 1.13 1.61 4.61a8.28 8.28 0 0 0-2.657 2.644L4.96 10.301a12.887 12.887 0 0 1 5.57-5.642h.08zM3.832 18.878a6.732 6.732 0 0 1-.161-.968v-.403a11.98 11.98 0 0 1 0-2.772v-.404c.03-.325.084-.649.161-.967v-.096l4.604 1.612a7.217 7.217 0 0 0 0 2.353l-4.604 1.612v.033zm6.696 8.705a12.887 12.887 0 0 1-5.57-5.578l4.604-1.612a8.28 8.28 0 0 0 2.64 2.644l-1.674 4.546zm8.628 1.128c-.338.08-.66.13-.982.178h-.386c-.92.096-1.849.096-2.769 0h-.386c-.322 0-.644-.097-.982-.178h-.097l1.61-4.61a7.184 7.184 0 0 0 2.35 0l1.61 4.61h.032zm-1.079-8.06c-.273.097-.547.161-.804.226a4.4 4.4 0 0 1-1.61 0c-.258 0-.531-.13-.805-.226a4.832 4.832 0 0 1-2.962-2.918 5.213 5.213 0 0 1-.225-.822 4.246 4.246 0 0 1 0-1.612c.049-.269.119-.533.21-.79a4.833 4.833 0 0 1 2.913-2.902c.273-.097.547-.161.805-.226a4.4 4.4 0 0 1 1.61 0c.257 0 .53.13.804.226a4.833 4.833 0 0 1 2.897 2.902c.098.267.173.542.226.822.103.532.103 1.08 0 1.612a4.833 4.833 0 0 1-3.123 3.692l.064.016zm4.202 6.948-1.61-4.61a8.28 8.28 0 0 0 2.64-2.644l4.603 1.612a12.887 12.887 0 0 1-5.633 5.626v.016zm7.002-10.092v.403c-.03.326-.084.65-.161.968v.096l-4.604-1.612a7.217 7.217 0 0 0 0-2.353l4.604-1.613v.097c.077.318.13.642.16.967v.403a11.98 11.98 0 0 1 0 2.773v-.129z"/></symbol><symbol viewBox="0 0 24 24" id="icons-home"><path d="M21.805 7.22 14.64.916a3.574 3.574 0 0 0-4.778 0L2.695 7.22A3.602 3.602 0 0 0 1.5 9.93v10.475A3.59 3.59 0 0 0 5.084 24h14.333A3.59 3.59 0 0 0 23 20.404V9.917a3.601 3.601 0 0 0-1.195-2.697zM14.64 21.603H9.86V15.61c0-.662.535-1.199 1.195-1.199h2.389c.66 0 1.194.537 1.194 1.199v5.993zm5.972-1.199c0 .662-.535 1.199-1.194 1.199h-2.39V15.61a3.59 3.59 0 0 0-3.582-3.596h-2.39a3.59 3.59 0 0 0-3.583 3.596v5.993H5.084c-.66 0-1.195-.537-1.195-1.199V9.917a1.2 1.2 0 0 1 .406-.9l7.167-6.292a1.191 1.191 0 0 1 1.576 0l7.167 6.293a1.2 1.2 0 0 1 .406.899v10.487z"/></symbol><symbol viewBox="0 0 24 24" id="icons-image"><path d="M20.4 2.5H3.6C1.612 2.5 0 4.095 0 6.063v11.875C0 19.904 1.612 21.5 3.6 21.5h16.8c1.988 0 3.6-1.595 3.6-3.563V6.063C24 4.095 22.388 2.5 20.4 2.5zM3.6 19.125c-.663 0-1.2-.532-1.2-1.188v-2.873l3.96-3.907a1.209 1.209 0 0 1 1.68 0l8.052 7.968H3.6zm18-1.188c0 .656-.537 1.188-1.2 1.188h-.924l-4.572-4.548 1.056-1.045a1.209 1.209 0 0 1 1.68 0l3.96 3.907v.498zm0-3.847-2.256-2.22a3.7 3.7 0 0 0-5.088 0L13.2 12.913l-3.456-3.42a3.7 3.7 0 0 0-5.088 0L2.4 11.715V6.063c0-.656.537-1.188 1.2-1.188h16.8c.663 0 1.2.532 1.2 1.188v8.027z"/></symbol><symbol viewBox="0 0 20 20" id="icons-key"><path d="m19.679 4.532-1.418-1.41 1.418-1.409a1.005 1.005 0 0 0 0-1.419 1.001 1.001 0 0 0-1.418 0L7.74 10.83a4.986 4.986 0 0 0-6.616 1.012 5.003 5.003 0 0 0 .338 6.694 4.986 4.986 0 0 0 6.684.339 5.003 5.003 0 0 0 1.011-6.626l4.872-4.888 1.407 1.42a.998.998 0 0 0 .709.29.998.998 0 0 0 1.004-1 1 1 0 0 0-.295-.71l-1.418-1.36 1.418-1.419 1.407 1.42a.998.998 0 0 0 .709.29.998.998 0 0 0 .709-.29 1 1 0 0 0 0-1.47zM4.995 17.997A2.997 2.997 0 0 1 2 14.998 2.997 2.997 0 0 1 4.995 12a2.997 2.997 0 0 1 2.994 2.998 2.997 2.997 0 0 1-2.994 3z"/></symbol><symbol viewBox="0 0 20 20" id="icons-keyboard"><path d="M4.736 10.982a.844.844 0 0 0-.3-.194.897.897 0 0 0-.69 0 .824.824 0 0 0-.491.498.931.931 0 0 0 .28 1.092.899.899 0 0 0 1.112 0 .931.931 0 0 0 .28-1.092.924.924 0 0 0-.19-.304zm6.628-2.113h.909a.916.916 0 0 0 .909-.923.916.916 0 0 0-.91-.922h-.908a.916.916 0 0 0-.91.922c0 .51.408.923.91.923zm-3.637 0h.91a.916.916 0 0 0 .908-.923.916.916 0 0 0-.909-.922h-.909a.916.916 0 0 0-.909.922c0 .51.407.923.91.923zM5 7.024h-.91a.916.916 0 0 0-.908.922c0 .51.407.923.909.923H5c.502 0 .91-.413.91-.923A.916.916 0 0 0 5 7.024zm12.273-3.69H2.727C1.221 3.333 0 4.572 0 6.1v7.381c0 1.529 1.221 2.768 2.727 2.768h14.546c1.506 0 2.727-1.24 2.727-2.768v-7.38c0-1.53-1.221-2.769-2.727-2.769zm.909 10.148c0 .51-.407.923-.91.923H2.728a.916.916 0 0 1-.909-.923v-7.38c0-.51.407-.923.91-.923h14.545c.502 0 .909.413.909.922v7.381zm-5.455-2.768H7.273a.916.916 0 0 0-.91.923c0 .51.408.923.91.923h5.454c.502 0 .91-.414.91-.923a.916.916 0 0 0-.91-.923zm3.182-3.69H15a.916.916 0 0 0-.91.922c0 .51.408.923.91.923h.91a.916.916 0 0 0 .908-.923.916.916 0 0 0-.909-.922zm.646 3.958a.908.908 0 0 0-.3-.194.897.897 0 0 0-.691 0 .844.844 0 0 0-.3.194.924.924 0 0 0-.191.304.933.933 0 0 0 .192 1.012.9.9 0 0 0 .996.2.923.923 0 0 0 .557-.861.785.785 0 0 0-.073-.35.924.924 0 0 0-.19-.305z"/></symbol><symbol viewBox="0 0 24 24" id="icons-lang-en"><path fill="#FFF" d="M0 5.5h24v12.632H0z"/><path d="M0 5.5h24v.972H0V5.5zm0 1.943h24v.972H0v-.972zm0 1.944h24v.971H0v-.971zm0 1.943h24v.972H0v-.972zm0 1.943h24v.972H0v-.972zm0 1.944h24v.971H0v-.971zm0 1.943h24v.972H0v-.972z" fill="#B22234"/><path fill="#3C3B6E" d="M0 5.5h9.6v6.802H0z"/><path d="m.451 6.052.229.166-.088.27.229-.167.229.166-.088-.269.229-.166H.908l-.087-.269-.087.27H.45zm1.592 0 .228.166-.087.27.229-.167.228.166-.087-.269.229-.166H2.5l-.087-.269-.088.27h-.282zm1.591 0 .229.166-.087.27.228-.167.229.166-.087-.269.228-.166h-.282l-.088-.269-.087.27h-.283zm1.592 0 .228.166-.087.27.229-.167.228.166-.087-.269.229-.166h-.283l-.087-.269-.088.27h-.282zm1.591 0 .23.166-.088.27.228-.167.23.166-.088-.269.228-.166h-.282l-.088-.269-.087.27h-.283zm1.592 0 .229.166-.088.27.229-.167.229.166-.088-.269.229-.166h-.283l-.087-.269-.087.27h-.283zm-7.162.682.229.166-.088.27.229-.167.229.166-.088-.269.229-.166h-.283l-.087-.269-.087.27h-.283zm1.591 0 .23.166-.088.27.228-.167.23.166L3.35 6.9l.228-.166h-.282l-.088-.269-.087.27h-.283zm1.592 0 .229.166-.088.27.229-.167.229.166L4.94 6.9l.229-.166h-.283L4.8 6.465l-.087.27H4.43zm1.592 0 .228.166-.087.27.229-.167.228.166-.087-.269.229-.166h-.283l-.087-.269-.088.27h-.282zm1.591 0 .229.166-.088.27.23-.167.228.166-.088-.269.23-.166H8.07l-.087-.269-.087.27h-.283zm-7.162.682.229.167-.088.268.229-.166.229.166-.088-.268.229-.167H.908l-.087-.268-.087.268H.45zm1.592 0 .228.167-.087.268.229-.166.228.166-.087-.268.229-.167H2.5l-.087-.268-.088.268h-.282zm1.591 0 .229.167-.087.268.228-.166.229.166-.087-.268.228-.167h-.282l-.088-.268-.087.268h-.283zm1.592 0 .228.167-.087.268.229-.166.228.166-.087-.268.229-.167h-.283l-.087-.268-.088.268h-.282zm1.591 0 .23.167-.088.268.228-.166.23.166-.088-.268.228-.167h-.282l-.088-.268-.087.268h-.283zm1.592 0 .229.167-.088.268.229-.166.229.166-.088-.268.229-.167h-.283l-.087-.268-.087.268h-.283zm-7.143.685.23.166-.088.269.228-.166.23.166-.088-.27.228-.165h-.282l-.088-.27-.087.27h-.283zm1.592 0 .229.166-.088.269.23-.166.228.166-.088-.27.23-.165h-.284l-.087-.27-.087.27h-.283zm1.592 0 .228.166-.087.269.229-.166.228.166-.087-.27.229-.165h-.283l-.087-.27-.088.27H4.45zm1.591 0 .229.166-.087.269.228-.166.229.166-.087-.27.228-.165H6.5l-.088-.27-.087.27H6.04zm1.592 0 .228.166-.087.269.229-.166.228.166-.087-.27.229-.165H8.09l-.087-.27-.088.27h-.282zm-7.158.676.229.166-.087.27.228-.167.229.166-.087-.269.228-.166H.933l-.088-.269-.087.27H.475zm1.592 0 .228.166-.087.27.229-.167.228.166-.087-.269.229-.166h-.283l-.087-.269-.088.27h-.282zm1.591 0 .229.166-.087.27.228-.167.229.166-.087-.269.228-.166h-.282l-.088-.269-.087.27h-.283zm1.592 0 .229.166-.088.27.229-.167.229.166-.088-.269.229-.166h-.283l-.087-.269-.087.27H5.25zm1.592 0 .228.166-.087.27.229-.167.228.166-.087-.269.229-.166h-.283l-.087-.269-.088.27h-.282zm1.591 0 .229.166-.088.27.23-.167.228.166-.088-.269.23-.166H8.89l-.087-.269-.087.27h-.283zM.49 10.12l.229.166-.088.269.23-.166.228.166-.088-.27.23-.165H.947L.86 9.85l-.087.269H.49zm1.592 0 .228.166-.087.269.229-.166.228.166-.087-.27.229-.165h-.283l-.087-.269-.088.269h-.282zm1.591 0 .229.166-.087.269.228-.166.229.166-.087-.27.228-.165h-.282l-.088-.269-.087.269h-.283zm1.592 0 .229.166-.088.269.229-.166.229.166-.088-.27.229-.165h-.283l-.087-.269-.087.269h-.283zm1.591 0 .23.166-.088.269.228-.166.23.166-.088-.27.228-.165h-.282l-.088-.269-.087.269h-.283zm1.592 0 .229.166-.088.269.229-.166.229.166-.088-.27.229-.165h-.283l-.087-.269-.087.269h-.283zM.471 11.478l.228.166-.087.27.229-.167.228.166-.087-.269.229-.166H.928l-.087-.269-.088.27H.471zm1.591 0 .229.166-.087.27.228-.167.229.166-.087-.269.228-.166H2.52l-.088-.269-.087.27h-.283zm1.592 0 .228.166-.087.27.229-.167.229.166-.088-.269.229-.166H4.11l-.087-.269-.088.27h-.282zm1.591 0 .23.166-.088.27.228-.167.23.166-.088-.269.228-.166h-.282l-.088-.269-.087.27h-.283zm1.592 0 .229.166-.088.27.229-.167.229.166-.088-.269.229-.166h-.283l-.087-.269-.087.27h-.283zm1.592 0 .228.166-.087.27.229-.167.228.166-.087-.269.229-.166h-.283l-.087-.269-.088.27H8.43zM1.27 9.442l.229.166-.087.269.228-.166.229.166-.087-.27.228-.165h-.28l-.088-.27-.087.27H1.27zm1.592 0 .228.166-.087.269.229-.166.228.166-.087-.27.229-.165H3.32l-.087-.27-.088.27h-.282zm1.591 0 .229.166-.087.269.228-.166.229.166-.087-.27.228-.165h-.282l-.088-.27-.087.27h-.283zm1.592 0 .229.166-.088.269.229-.166.229.166-.088-.27.229-.165h-.283l-.087-.27-.087.27h-.283zm1.592 0 .228.166-.087.269.229-.166.228.166-.087-.27.229-.165h-.283l-.087-.27-.088.27h-.282zm-6.372 1.356.23.166-.088.269.228-.166.23.166-.088-.269.228-.166h-.282l-.088-.269-.087.269h-.283zm1.592 0 .229.166-.088.269.23-.166.228.166-.088-.269.23-.166h-.284l-.087-.269-.087.269h-.283zm1.592 0 .228.166-.087.269.229-.166.228.166-.087-.269.229-.166h-.283l-.087-.269-.088.269H4.45zm1.591 0 .229.166-.087.269.228-.166.229.166-.087-.269.228-.166H6.5l-.088-.269-.087.269H6.04zm1.592 0 .228.166-.087.269.229-.166.228.166-.087-.269.229-.166H8.09l-.087-.269-.088.269h-.282z" fill="#FFF"/></symbol><symbol viewBox="0 0 20 20" id="icons-link"><path d="m7.932 15.65-1.784 1.732a2.496 2.496 0 0 1-3.527 0 2.49 2.49 0 0 1 0-3.524l4.575-4.58a2.48 2.48 0 0 1 3.417-.091l.12.1a1.01 1.01 0 0 0 1.411-1.44 2.77 2.77 0 0 0-.181-.21 4.498 4.498 0 0 0-6.137.22L1.19 12.439a4.507 4.507 0 0 0 .132 6.241 4.518 4.518 0 0 0 6.247.132l1.744-1.701a1.006 1.006 0 0 0-1.381-1.46zM18.705 1.314a4.528 4.528 0 0 0-6.38 0l-1.743 1.701a1.006 1.006 0 0 0 1.38 1.46l1.744-1.731a2.496 2.496 0 0 1 3.527 0 2.49 2.49 0 0 1 0 3.523l-4.575 4.58a2.48 2.48 0 0 1-3.416.091l-.121-.1a1.01 1.01 0 0 0-1.41 1.44c.072.074.15.145.231.21a4.508 4.508 0 0 0 6.137-.22l4.585-4.581a4.517 4.517 0 0 0 .04-6.373z"/></symbol><symbol viewBox="0 0 24 24" id="icons-liquidity"><path d="M18.02 5.98A9.32 9.32 0 1 0 5.98 18.02 9.32 9.32 0 1 0 18.02 5.98zm-1.926 1.926c.087.453.131.912.132 1.373a7.128 7.128 0 0 1-.192 1.613l-2.938-2.914a7.128 7.128 0 0 1 1.613-.192c.46 0 .92.045 1.373.132l.012-.012zm-1.132 5.298a7.225 7.225 0 0 1-1.758 1.758l-4.166-4.166a7.225 7.225 0 0 1 1.758-1.758l4.166 4.166zm-9.633 1.758a6.923 6.923 0 1 1 9.633-9.633h-.301a9.344 9.344 0 0 0-9.283 9.38c0 .097.012.205.012.301l-.06-.048zm2.529 1.072a7.369 7.369 0 0 1-.132-1.373 7.128 7.128 0 0 1 .192-1.613l2.926 2.925a7.13 7.13 0 0 1-1.613.193 7.369 7.369 0 0 1-1.313-.084l-.06-.048zm6.851 5.599a6.948 6.948 0 0 1-5.72-3.023h.302a9.344 9.344 0 0 0 9.331-9.32v-.3a6.923 6.923 0 0 1-3.913 12.643z" fill-rule="evenodd"/></symbol><symbol viewBox="0 0 20 20" id="icons-lock"><path d="M14.948 7V5c0-2.761-2.215-5-4.948-5-2.733 0-4.948 2.239-4.948 5v2c-1.64 0-2.969 1.343-2.969 3v7c0 1.657 1.33 3 2.97 3h9.895c1.64 0 2.969-1.343 2.969-3v-7c0-1.657-1.33-3-2.97-3zM7.03 5c0-1.657 1.33-3 2.969-3 1.64 0 2.969 1.343 2.969 3v2H7.03V5zm8.907 12c0 .552-.444 1-.99 1H5.052a.995.995 0 0 1-.99-1v-7c0-.552.444-1 .99-1h9.896c.546 0 .99.448.99 1v7z"/></symbol><symbol viewBox="0 0 11 10" id="icons-medal"><path d="M10.072 1.873a.5.5 0 0 0-.234-.305L7.247.068a.497.497 0 0 0-.683.18l-1.166 2.03L4.232.248a.498.498 0 0 0-.682-.18l-2.591 1.5a.5.5 0 0 0-.185.68l1.993 3.415a2.962 2.962 0 0 0-.358 1.33A3 3 0 0 0 4.324 9.8a2.983 2.983 0 0 0 3.297-.794 3.007 3.007 0 0 0 .438-3.373l1.943-3.38a.501.501 0 0 0 .07-.38zm-8.162.31 1.724-1 1.605 2.81a2.955 2.955 0 0 0-1.834.79l-1.495-2.6zm3.488 6.81c-1.1 0-1.993-.896-1.993-2 0-1.105.892-2 1.993-2 1.1 0 1.993.895 1.993 2 0 1.104-.892 2-1.993 2zm1.993-4.225a2.938 2.938 0 0 0-.927-.575l-.488-.915 1.206-2.095 1.724 1-1.515 2.585z"/></symbol><symbol viewBox="0 0 20 20" id="icons-medium"><path d="M19.21 4.417H20V2.083h-7.48l-2.486 9.167h-.068L7.503 2.083H0v2.334h.768a.895.895 0 0 1 .732.694v9.83a.84.84 0 0 1-.732.642H0v2.334h6v-2.334H4.5V5.25h.088l3.457 12.667h2.712L14.26 5.25h.073v10.333h-1.5v2.334H20v-2.334h-.79a.84.84 0 0 1-.71-.641v-9.83a.898.898 0 0 1 .71-.695z"/></symbol><symbol viewBox="0 0 24 24" id="icons-menu"><path d="M22.5 10.5h-21a1.5 1.5 0 0 0 0 3h21a1.5 1.5 0 0 0 0-3zm0-6h-21a1.5 1.5 0 0 0 0 3h21a1.5 1.5 0 0 0 0-3zm0 12h-21a1.5 1.5 0 0 0 0 3h21a1.5 1.5 0 0 0 0-3z"/></symbol><symbol viewBox="0 0 22 20" id="icons-metamask"><g fill="none" stroke-linecap="round" stroke-linejoin="round"><path stroke="#E2761B" fill="#E2761B" d="M20.004.833 12.2 6.63l1.443-3.42z"/><g fill="#E4761B" stroke="#E4761B"><path d="M1.988.833 9.73 6.684 8.357 3.21zm15.208 13.436-2.078 3.184 4.447 1.223 1.278-4.337zm-16.031.071 1.27 4.336 4.447-1.223-2.078-3.184z"/><path d="m6.631 8.888-1.239 1.875 4.416.196-.157-4.745zm8.729 0-3.058-2.73-.102 4.8 4.408-.195zm-8.478 8.565 2.651-1.294-2.29-1.788zm5.577-1.294 2.659 1.294-.369-3.082z"/></g><path d="m15.118 17.453-2.66-1.294.213 1.733-.024.73zm-8.236 0 2.47 1.169-.015-.73.196-1.733z" fill="#D7C1B3" stroke="#D7C1B3"/><path stroke="#233447" fill="#233447" d="m9.392 13.225-2.212-.65 1.561-.714zm3.208 0 .651-1.364 1.569.714z"/><path d="m6.882 17.453.377-3.184-2.455.07zm7.859-3.184.377 3.184 2.078-3.114zm1.867-3.506-4.408.196.408 2.266.65-1.364 1.57.714zM7.18 12.575l1.569-.714.643 1.364.416-2.266-4.416-.196z" fill="#CD6116" stroke="#CD6116"/><path d="m5.392 10.763 1.851 3.608-.063-1.796zm9.435 1.812-.078 1.796 1.859-3.608zm-5.019-1.616-.416 2.266.518 2.675.117-3.522zm2.392 0-.212 1.412.094 3.529.526-2.675z" fill="#E4751F" stroke="#E4751F"/><path stroke="#F6851B" fill="#F6851B" d="m12.608 13.225-.526 2.675.377.259 2.29-1.788.078-1.796zm-5.428-.65.063 1.796 2.29 1.788.377-.259-.518-2.675z"/><path stroke="#C0AD9E" fill="#C0AD9E" d="m12.647 18.622.024-.73-.196-.172H9.518l-.18.172.015.73-2.47-1.17.862.707 1.75 1.216h3.003l1.757-1.216.863-.706z"/><path stroke="#161616" fill="#161616" d="m12.459 16.159-.377-.259H9.91l-.377.259-.196 1.733.18-.172h2.958l.196.172z"/><path d="m20.333 7.006.667-3.2-.996-2.973-7.545 5.6 2.902 2.455 4.102 1.2.91-1.059-.393-.282.628-.572-.486-.377.627-.478zM1 3.806l.667 3.2-.424.314.628.478-.479.377.628.572-.393.282.902 1.06 4.102-1.2 2.902-2.456-7.545-5.6z" fill="#763D16" stroke="#763D16"/><path stroke="#F6851B" fill="#F6851B" d="m19.463 10.088-4.102-1.2 1.247 1.875-1.859 3.608 2.447-.032h3.647zm-12.832-1.2-4.102 1.2-1.364 4.251h3.639l2.44.032-1.852-3.608zm5.569 2.071.259-4.526L13.65 3.21H8.357l1.176 3.223.275 4.526.094 1.427.008 3.514h2.172l.016-3.514z"/></g></symbol><symbol viewBox="0 0 20 20" id="icons-minus"><path d="M18.75 8.75H1.25a1.25 1.25 0 1 0 0 2.5h17.5a1.25 1.25 0 0 0 0-2.5z"/></symbol><symbol viewBox="0 0 20 20" id="icons-more"><path d="M10 7.5c-1.227 0-2.222 1.026-2.222 2.292 0 1.265.995 2.291 2.222 2.291 1.227 0 2.222-1.026 2.222-2.291 0-1.266-.995-2.292-2.222-2.292zm-7.778 0C.995 7.5 0 8.526 0 9.792c0 1.265.995 2.291 2.222 2.291 1.228 0 2.222-1.026 2.222-2.291 0-1.266-.994-2.292-2.222-2.292zm15.556 0c-1.228 0-2.222 1.026-2.222 2.292 0 1.265.994 2.291 2.222 2.291 1.227 0 2.222-1.026 2.222-2.291 0-1.266-.995-2.292-2.222-2.292z"/></symbol><symbol viewBox="0 0 20 20" id="icons-news"><path d="M15 9.213h-1c-.552 0-1 .446-1 .995 0 .55.448.996 1 .996h1c.552 0 1-.446 1-.996a.998.998 0 0 0-1-.995zm0 3.981h-1c-.552 0-1 .446-1 .996s.448.995 1 .995h1c.552 0 1-.445 1-.995a.998.998 0 0 0-1-.996zM9 7.222h6c.552 0 1-.445 1-.995a.998.998 0 0 0-1-.996H9c-.552 0-1 .446-1 .996s.448.995 1 .995zM19 1.25H5c-.552 0-1 .446-1 .995v2.986H1c-.552 0-1 .446-1 .996v9.954a2.993 2.993 0 0 0 3 2.986h13c2.21 0 4-1.783 4-3.982V2.245a.998.998 0 0 0-1-.995zM4 16.18c0 .55-.448.996-1 .996s-1-.446-1-.995V7.222h2v8.959zm14-.995c0 1.1-.895 1.99-2 1.99H5.82c.116-.318.177-.655.18-.994V3.24h12v11.944zm-9-3.981h1c.552 0 1-.446 1-.996a.998.998 0 0 0-1-.995H9c-.552 0-1 .446-1 .995 0 .55.448.996 1 .996zm0 3.981h1c.552 0 1-.445 1-.995a.998.998 0 0 0-1-.996H9c-.552 0-1 .446-1 .996s.448.995 1 .995z" fill-rule="evenodd"/></symbol><symbol viewBox="0 0 20 20" id="icons-play"><path d="M17.27 6.665 6.535.51A3.8 3.8 0 0 0 .834 3.843V16.2a3.8 3.8 0 0 0 5.7 3.289l10.736-6.156a3.8 3.8 0 0 0 0-6.579v-.089zm-1.112 4.656L5.423 17.566a1.6 1.6 0 0 1-1.578 0 1.578 1.578 0 0 1-.789-1.366V3.798a1.575 1.575 0 0 1 1.578-1.577c.276.005.547.078.79.21l10.734 6.201a1.578 1.578 0 0 1 0 2.734v-.045z"/></symbol><symbol viewBox="0 0 20 20" id="icons-plus"><path d="M18.75 8.75h-7.5v-7.5a1.25 1.25 0 0 0-2.5 0v7.5h-7.5a1.25 1.25 0 1 0 0 2.5h7.5v7.5a1.25 1.25 0 0 0 2.5 0v-7.5h7.5a1.25 1.25 0 0 0 0-2.5z"/></symbol><symbol viewBox="0 0 20 20" id="icons-promo"><path d="M4.701 8.445a3.749 3.749 0 1 0 0-7.498 3.749 3.749 0 0 0 0 7.498zm0-4.999a1.25 1.25 0 1 1 0 2.5 1.25 1.25 0 0 1 0-2.5zm10.603 8.104a3.749 3.749 0 1 0 0 7.498 3.749 3.749 0 0 0 0-7.498zm0 4.998a1.25 1.25 0 1 1 0-2.5 1.25 1.25 0 0 1 0 2.5zM19.634.366a1.25 1.25 0 0 0-1.767 0L.372 17.861a1.25 1.25 0 1 0 1.767 1.767L19.634 2.133a1.25 1.25 0 0 0 0-1.767z"/></symbol><symbol viewBox="0 0 20 20" id="icons-question"><path d="M9.29 13.29a1.58 1.58 0 0 0-.12.15.76.76 0 0 0-.09.18.64.64 0 0 0-.06.18 1.36 1.36 0 0 0 0 .2.84.84 0 0 0 .08.38.9.9 0 0 0 .54.54.94.94 0 0 0 .76 0 .9.9 0 0 0 .54-.54A1 1 0 0 0 11 14a1 1 0 0 0-1.71-.71zM10 0C4.477 0 0 4.477 0 10s4.477 10 10 10 10-4.477 10-10A10 10 0 0 0 10 0zm0 18a8 8 0 1 1 0-16 8 8 0 0 1 0 16zm0-13a3 3 0 0 0-2.6 1.5 1 1 0 1 0 1.73 1A1 1 0 0 1 10 7a1 1 0 0 1 0 2 1 1 0 0 0-1 1v1a1 1 0 1 0 2 0v-.18A3 3 0 0 0 10 5z" fill-rule="evenodd"/></symbol><symbol viewBox="0 0 24 24" id="icons-rocket"><path d="M23.598 1.17a1.093 1.093 0 0 0-.78-.776 12.343 12.343 0 0 0-12.494 3.947l-1.22 1.443-2.85-.685a3.044 3.044 0 0 0-3.705 1.479L.14 10.827a1.085 1.085 0 0 0-.045.982c.143.316.429.546.77.618l3.361.718a14.568 14.568 0 0 0-.607 2.652c-.044.335.07.672.311.911l3.392 3.378a1.096 1.096 0 0 0 .869.315 13.364 13.364 0 0 0 2.726-.534l.704 3.272c.073.339.303.623.62.765.318.142.684.126.988-.044l4.272-2.4a3.301 3.301 0 0 0 1.505-3.6l-.732-3.005 1.354-1.24a12.176 12.176 0 0 0 3.969-12.444zm-20.82 9.437L4.48 7.6a.905.905 0 0 1 1.17-.409l1.88.454-.711.84a14.262 14.262 0 0 0-1.74 2.613l-2.301-.491zm13.644 8.958-2.972 1.669-.47-2.184a12.41 12.41 0 0 0 2.64-1.765l.814-.745.442 1.814a1.13 1.13 0 0 1-.454 1.21zm1.766-7.589-4.032 3.69a10.715 10.715 0 0 1-5.657 2.51l-2.63-2.62a11.888 11.888 0 0 1 2.627-5.671l1.836-2.171c.03-.032.06-.066.085-.101l1.57-1.857a10.175 10.175 0 0 1 9.64-3.399 10.02 10.02 0 0 1-3.44 9.62zm-1.01-6.715c-.906 0-1.641.732-1.641 1.634 0 .903.735 1.634 1.641 1.634s1.641-.731 1.641-1.634c0-.433-.173-.849-.48-1.155a1.645 1.645 0 0 0-1.161-.479z"/></symbol><symbol viewBox="0 0 20 20" id="icons-search"><path d="m19.092 14.82-2.083-2.125a3.108 3.108 0 0 0-3.421-.571l-.906-.903a6.998 6.998 0 0 0-1.027-9.507 7.063 7.063 0 0 0-9.592.341 6.998 6.998 0 0 0-.343 9.557 7.062 7.062 0 0 0 9.544 1.023l.895.892a2.999 2.999 0 0 0 .533 3.468l2.134 2.126a3.027 3.027 0 0 0 4.266 0 3.002 3.002 0 0 0 0-4.3zm-8.533-4.25a5.044 5.044 0 0 1-7.112-.006 4.999 4.999 0 0 1 0-7.085 5.044 5.044 0 0 1 7.112-.006 5.003 5.003 0 0 1 0 7.097zm7.114 7.087a1.008 1.008 0 0 1-1.429 0l-2.133-2.125a1 1 0 0 1 0-1.424 1.008 1.008 0 0 1 1.429 0l2.133 2.126a1 1 0 0 1 0 1.423z"/></symbol><symbol viewBox="0 0 24 24" id="icons-settings"><path d="M6 4.8H4.8V1.2a1.2 1.2 0 1 0-2.4 0v3.6H1.2a1.2 1.2 0 1 0 0 2.4H6a1.2 1.2 0 1 0 0-2.4zM3.6 9.6a1.2 1.2 0 0 0-1.2 1.2v12a1.2 1.2 0 1 0 2.4 0v-12a1.2 1.2 0 0 0-1.2-1.2zm8.4 9.6a1.2 1.2 0 0 0-1.2 1.2v2.4a1.2 1.2 0 1 0 2.4 0v-2.4a1.2 1.2 0 0 0-1.2-1.2zm10.8-9.6h-1.2V1.2a1.2 1.2 0 1 0-2.4 0v8.4H18a1.2 1.2 0 1 0 0 2.4h4.8a1.2 1.2 0 1 0 0-2.4zm-2.4 4.8a1.2 1.2 0 0 0-1.2 1.2v7.2a1.2 1.2 0 1 0 2.4 0v-7.2a1.2 1.2 0 0 0-1.2-1.2zm-6 0h-1.2V1.2a1.2 1.2 0 1 0-2.4 0v13.2H9.6a1.2 1.2 0 1 0 0 2.4h4.8a1.2 1.2 0 1 0 0-2.4z"/></symbol><symbol viewBox="0 0 20 20" id="icons-shield"><path d="M18.05 1.649a.982.982 0 0 0-.83-.2 7.848 7.848 0 0 1-6.156-1.27.98.98 0 0 0-1.128 0 7.848 7.848 0 0 1-6.155 1.27.982.982 0 0 0-.832.2c-.232.19-.367.477-.366.78v7.452a9.033 9.033 0 0 0 3.731 7.333l3.612 2.6a.98.98 0 0 0 1.148 0l3.612-2.6a9.033 9.033 0 0 0 3.73-7.333V2.43a1.005 1.005 0 0 0-.365-.78zM16.438 9.88a7.026 7.026 0 0 1-2.899 5.702l-3.038 2.19-3.038-2.19a7.026 7.026 0 0 1-2.9-5.702v-6.3A9.81 9.81 0 0 0 10.5 2.19a9.81 9.81 0 0 0 5.937 1.39v6.302zm-4.413-2.29-2.662 2.7-.88-.9a.986.986 0 0 0-1.406 0 1.012 1.012 0 0 0 0 1.42l1.583 1.601a.984.984 0 0 0 1.406 0l3.404-3.41a1.012 1.012 0 0 0 0-1.421.986.986 0 0 0-1.405 0l-.04.01z"/></symbol><symbol viewBox="0 0 24 24" id="icons-stake"><path d="m.588 8.304 10.575 6.121c.363.21.81.21 1.174 0l10.575-6.121a1.178 1.178 0 0 0 0-2.037L12.337.157a1.173 1.173 0 0 0-1.174 0L.588 6.268a1.178 1.178 0 0 0 0 2.037zM11.75 2.583l8.225 4.708L11.75 12 3.525 7.291l8.225-4.708zm9.987 8.44-9.987 5.686-9.987-5.733a1.173 1.173 0 0 0-1.61.435 1.178 1.178 0 0 0 .435 1.601l10.575 6.122c.363.21.81.21 1.174 0l10.575-6.122a1.178 1.178 0 0 0-.28-2.154 1.173 1.173 0 0 0-.895.118v.047zm0 4.709-9.987 5.685-9.987-5.732a1.173 1.173 0 0 0-1.61.435 1.178 1.178 0 0 0 .435 1.601l10.575 6.121c.363.21.81.21 1.174 0l10.575-6.121a1.178 1.178 0 0 0-.28-2.154 1.173 1.173 0 0 0-.895.118v.047z"/></symbol><symbol viewBox="0 0 25 24" id="icons-star"><path d="M18.697 23.5c-.195 0-.386-.048-.558-.138l-6.117-3.232-6.117 3.232a1.195 1.195 0 0 1-1.263-.092 1.209 1.209 0 0 1-.478-1.18l1.168-6.844L.384 10.4a1.21 1.21 0 0 1-.303-1.236c.14-.437.516-.755.968-.821l6.839-.999 3.058-6.227a1.249 1.249 0 0 1 2.152 0l3.058 6.227 6.839.998c.452.067.827.385.968.821a1.21 1.21 0 0 1-.303 1.237l-4.948 4.846 1.168 6.844c.06.35-.037.71-.266.981a1.198 1.198 0 0 1-.917.429z"/></symbol><symbol viewBox="0 0 20 20" id="icons-sync"><path d="M17.91 13.51h-4.53a1 1 0 0 0 0 2h2.4A8 8 0 0 1 2 10a1 1 0 1 0-2 0 10 10 0 0 0 16.88 7.23V19a1 1 0 0 0 2 0v-4.5a1 1 0 0 0-.97-.99zM10 0a10 10 0 0 0-6.88 2.77V1a1 1 0 1 0-2 0v4.5a1 1 0 0 0 1 1h4.5a1 1 0 1 0 0-2h-2.4A8 8 0 0 1 18 10a1 1 0 0 0 2 0A10 10 0 0 0 10 0z"/></symbol><symbol viewBox="0 0 20 20" id="icons-target"><path d="M1 7a1 1 0 0 0 1-1V3a1 1 0 0 1 1-1h3a1 1 0 1 0 0-2H3a3 3 0 0 0-3 3v3a1 1 0 0 0 1 1zm5 11H3a1 1 0 0 1-1-1v-3a1 1 0 0 0-2 0v3a3 3 0 0 0 3 3h3a1 1 0 0 0 0-2zm9-7a1 1 0 0 0 0-2h-1.14A4 4 0 0 0 11 6.14V5a1 1 0 0 0-2 0v1.14A4 4 0 0 0 6.14 9H5a1 1 0 1 0 0 2h1.14A4 4 0 0 0 9 13.86V15a1 1 0 0 0 2 0v-1.14A4 4 0 0 0 13.86 11H15zm-5 1a2 2 0 1 1 0-4 2 2 0 0 1 0 4zm9 1a1 1 0 0 0-1 1v3a1 1 0 0 1-1 1h-3a1 1 0 0 0 0 2h3a3 3 0 0 0 3-3v-3a1 1 0 0 0-1-1zM17 0h-3a1 1 0 0 0 0 2h3a1 1 0 0 1 1 1v3a1 1 0 0 0 2 0V3a3 3 0 0 0-3-3z"/></symbol><symbol viewBox="0 0 20 20" id="icons-telegram"><path d="M10 0c5.523 0 10 4.477 10 10s-4.477 10-10 10S0 15.523 0 10 4.477 0 10 0zm4.089 6.02c-.194.003-.442.059-1.018.27l-.232.087a96.76 96.76 0 0 0-2.48 1.005L4.526 9.894c-.474.189-.722.373-.744.553-.044.346.454.453 1.08.657.51.166 1.198.36 1.555.368.324.007.685-.127 1.084-.4.817-.552 1.516-1.022 2.096-1.41l.369-.247c1.113-.742 1.697-1.12 1.753-1.132.062-.014.149-.032.207.02.059.052.053.15.047.177-.024.101-.626.69-1.262 1.292l-.318.3c-.58.544-1.11 1.032-1.176 1.1-.562.584-1.202.941-.215 1.592l2.232 1.5c.562.368 1.003.805 1.584.752.267-.025.543-.276.683-1.026.332-1.77.983-5.608 1.133-7.19a1.763 1.763 0 0 0-.017-.393.421.421 0 0 0-.142-.27c-.12-.098-.305-.118-.387-.117z"/></symbol><symbol viewBox="0 0 33 32" id="icons-thumbs-up"><path d="M31.383 12.928a4.8 4.8 0 0 0-3.68-1.728h-7.297l.896-2.288A6.607 6.607 0 0 0 15.077 0a1.6 1.6 0 0 0-1.456.944L9.061 11.2H5.3A4.8 4.8 0 0 0 .5 16v11.2A4.8 4.8 0 0 0 5.3 32h20.37a4.8 4.8 0 0 0 4.72-3.936l2.033-11.2a4.8 4.8 0 0 0-1.04-3.936zM8.5 28.8H5.3a1.6 1.6 0 0 1-1.6-1.6V16a1.6 1.6 0 0 1 1.6-1.6h3.2v14.4zm20.801-12.512-2.032 11.2a1.6 1.6 0 0 1-1.6 1.312H11.701V13.136l4.352-9.792a3.376 3.376 0 0 1 2.209 4.448l-.849 2.288a3.2 3.2 0 0 0 2.993 4.32h7.296a1.6 1.6 0 0 1 1.232.576 1.6 1.6 0 0 1 .368 1.312z" fill="#2F06BB" fill-rule="evenodd"/></symbol><symbol viewBox="0 0 20 20" id="icons-twitter"><path d="M20 3.614a8.503 8.503 0 0 1-2.36.638 4.123 4.123 0 0 0 1.81-2.265 8.22 8.22 0 0 1-2.61.998 4.106 4.106 0 0 0-4.946-.835A4.09 4.09 0 0 0 9.84 6.718a11.648 11.648 0 0 1-8.45-4.282 4.146 4.146 0 0 0-.55 2.066 4.08 4.08 0 0 0 1.82 3.403A4.056 4.056 0 0 1 .8 7.396v.05a4.094 4.094 0 0 0 3.3 3.993 3.937 3.937 0 0 1-1.1.17 4.91 4.91 0 0 1-.77-.07 4.11 4.11 0 0 0 3.83 2.834A8.23 8.23 0 0 1 0 16.07a11.586 11.586 0 0 0 6.29 1.846 11.602 11.602 0 0 0 8.305-3.377A11.556 11.556 0 0 0 18 6.26v-.53a8.42 8.42 0 0 0 2-2.115z"/></symbol><symbol viewBox="0 0 20 20" id="icons-user"><path d="M13.713 10.71a5.977 5.977 0 0 0 1.97-6.675A6.027 6.027 0 0 0 9.985 0a6.027 6.027 0 0 0-5.698 4.035 5.977 5.977 0 0 0 1.97 6.674 10.002 10.002 0 0 0-6.25 8.176 1.006 1.006 0 0 0 .894 1.109 1.01 1.01 0 0 0 1.115-.89c.457-4.045 3.896-7.102 7.99-7.102 4.092 0 7.532 3.057 7.988 7.102.057.509.49.893 1.005.89h.11a1 1 0 0 0 .885-1.1 10.002 10.002 0 0 0-6.28-8.185zM9.985 10c-2.22 0-4.02-1.79-4.02-3.998s1.8-3.998 4.02-3.998c2.22 0 4.02 1.79 4.02 3.998 0 1.06-.424 2.077-1.178 2.827a4.031 4.031 0 0 1-2.842 1.17z"/></symbol><symbol viewBox="0 0 24 24" id="icons-users"><path d="M12.344 11.99a5.346 5.346 0 0 0 1.857-4.049c0-3.005-2.445-5.441-5.462-5.441-3.016 0-5.462 2.436-5.462 5.441 0 1.554.678 3.031 1.857 4.048A8.704 8.704 0 0 0 0 19.912C0 20.512.49 21 1.092 21a1.09 1.09 0 0 0 1.093-1.088c0-3.606 2.934-6.53 6.554-6.53s6.554 2.924 6.554 6.53c0 .6.49 1.088 1.093 1.088a1.09 1.09 0 0 0 1.092-1.088 8.704 8.704 0 0 0-5.134-7.923zm-3.605-.784A3.271 3.271 0 0 1 5.462 7.94a3.271 3.271 0 0 1 3.277-3.265 3.271 3.271 0 0 1 3.277 3.265 3.26 3.26 0 0 1-.96 2.309 3.284 3.284 0 0 1-2.317.956zm10.64.348a5.425 5.425 0 0 0 .898-5.844 5.463 5.463 0 0 0-4.984-3.21 1.09 1.09 0 0 0-1.092 1.088c0 .601.49 1.088 1.092 1.088a3.271 3.271 0 0 1 3.278 3.265 3.262 3.262 0 0 1-1.639 2.819 1.087 1.087 0 0 0-.055 1.85l.426.283.143.076a7.615 7.615 0 0 1 4.37 6.943c0 .6.488 1.088 1.091 1.088A1.09 1.09 0 0 0 24 19.912a9.785 9.785 0 0 0-4.621-8.358z"/></symbol><symbol viewBox="0 0 25 24" id="icons-wallet"><path d="M20.94 6.278h-1.2V5.083a3.592 3.592 0 0 0-3.6-3.583h-12a3.592 3.592 0 0 0-3.6 3.583v14.334A3.592 3.592 0 0 0 4.14 23h16.8c1.988 0 3.6-1.604 3.6-3.583V9.86a3.592 3.592 0 0 0-3.6-3.583zm-16.8-2.39h12c.663 0 1.2.536 1.2 1.195v1.195H4.14c-.663 0-1.2-.535-1.2-1.195s.537-1.194 1.2-1.194zm18 11.945h-1.2c-.663 0-1.2-.534-1.2-1.194 0-.66.537-1.195 1.2-1.195h1.2v2.39zm0-4.777h-1.2a3.592 3.592 0 0 0-3.6 3.583 3.592 3.592 0 0 0 3.6 3.583h1.2v1.195c0 .66-.537 1.194-1.2 1.194H4.14c-.663 0-1.2-.535-1.2-1.194V8.464c.386.135.792.203 1.2.203h16.8c.663 0 1.2.534 1.2 1.194v1.195z" fill-rule="evenodd"/></symbol><symbol viewBox="0 0 16 16" id="icons-withdraw"><path d="m6.88 3.597.393-.433v2.634A.73.73 0 0 0 8 6.53a.73.73 0 0 0 .727-.733V3.164l.393.404a.725.725 0 0 0 1.062.03.737.737 0 0 0 0-1.043L8.516.875a.727.727 0 0 0-.24-.153.722.722 0 0 0-.552 0 .727.727 0 0 0-.24.154l-1.666 1.65a.762.762 0 0 0 0 1.071.746.746 0 0 0 1.062 0zM8 7.998a2.191 2.191 0 0 0-2.182 2.2c0 1.216.977 2.201 2.182 2.201a2.191 2.191 0 0 0 2.182-2.2A2.19 2.19 0 0 0 8 7.999zm0 2.934a.73.73 0 0 1-.727-.733A.73.73 0 0 1 8 9.465a.73.73 0 0 1 .727.734.73.73 0 0 1-.727.733zM2.91 10.2a.73.73 0 0 0 .726.733.73.73 0 0 0 .728-.733.73.73 0 0 0-.728-.734.73.73 0 0 0-.727.734zm10.18 0a.73.73 0 0 0-.726-.734.73.73 0 0 0-.728.734.73.73 0 0 0 .728.733.73.73 0 0 0 .727-.733zm.728-5.135H10.91a.73.73 0 0 0-.727.734.73.73 0 0 0 .727.733h2.91a.73.73 0 0 1 .726.734v5.868a.73.73 0 0 1-.727.733H2.182a.73.73 0 0 1-.727-.733V7.265a.73.73 0 0 1 .727-.734H5.09a.73.73 0 0 0 .727-.733.73.73 0 0 0-.727-.734H2.18A2.191 2.191 0 0 0 0 7.264v5.869c0 1.215.977 2.2 2.182 2.2h11.636a2.191 2.191 0 0 0 2.182-2.2V7.265a2.19 2.19 0 0 0-2.182-2.2z"/></symbol><symbol viewBox="0 0 20 20" id="icons-youtube"><path d="M19.995 7.91a7.837 7.837 0 0 0-.826-3.783 2.648 2.648 0 0 0-1.563-.916 70.627 70.627 0 0 0-7.604-.284 70.708 70.708 0 0 0-7.577.275 2.6 2.6 0 0 0-1.327.678c-.817.76-.908 2.06-1 3.16a44.58 44.58 0 0 0 0 5.934 8.94 8.94 0 0 0 .273 1.832c.11.462.332.89.645 1.245.37.37.842.618 1.354.714 1.959.244 3.932.345 5.906.303 3.18.045 5.968 0 9.266-.257a2.61 2.61 0 0 0 1.39-.714 2.28 2.28 0 0 0 .555-.916 9.761 9.761 0 0 0 .472-3.114c.036-.513.036-3.608.036-4.158zM7.948 12.616v-5.67l5.379 2.849c-1.508.843-3.498 1.795-5.379 2.82z"/></symbol></defs></svg>