<svg width="32" height="33" xmlns="http://www.w3.org/2000/svg"><g fill="none"><path d="M15.99.457c8.84 0 16.004 7.164 16.004 16.003s-7.165 15.997-15.997 15.997C7.158 32.457 0 25.292 0 16.46-.006 7.62 7.158.457 15.99.457z" fill="#8247E5"/><path d="M21.235 12.972c-.384-.22-.875-.22-1.31 0l-3.06 1.813-2.077 1.152-3.003 1.807c-.384.22-.875.22-1.31 0l-2.348-1.43a1.339 1.339 0 01-.654-1.151v-2.745c0-.44.22-.875.654-1.152l2.349-1.373c.384-.22.875-.22 1.31 0l2.347 1.43c.384.22.655.66.655 1.152v1.813l2.078-1.209v-1.863c0-.441-.22-.876-.655-1.153l-4.37-2.58c-.383-.221-.874-.221-1.309 0L6.056 10.12c-.434.22-.654.661-.654 1.096v5.156c0 .44.22.875.654 1.152l4.426 2.58c.384.221.875.221 1.31 0l3.002-1.756 2.078-1.208 3.003-1.757c.384-.22.875-.22 1.31 0l2.348 1.373c.384.22.654.66.654 1.152v2.745c0 .44-.22.875-.654 1.152l-2.292 1.372c-.384.22-.875.22-1.31 0l-2.354-1.372a1.339 1.339 0 01-.655-1.152v-1.757l-2.077 1.209v1.813c0 .44.22.875.655 1.152l4.425 2.581c.384.22.875.22 1.31 0l4.425-2.581c.384-.22.655-.661.655-1.152v-5.213c0-.44-.22-.875-.655-1.152l-4.425-2.581z" fill="#FFF"/></g></svg>