<svg width="48" height="48" xmlns="http://www.w3.org/2000/svg"><g fill="none" fill-rule="evenodd"><path d="M44.1 0a3.9 3.9 0 110 7.8l-16.718-.001v11.417c2.344-.342 5.006-.958 7.986-1.85a3.218 3.218 0 013.949 1.99 3.015 3.015 0 01-1.924 3.898c-3.871 1.228-7.208 2.054-10.011 2.479v18.651a3.616 3.616 0 11-7.231 0V25.858c-2.707-.326-5.867-1.032-9.48-2.119a3.222 3.222 0 01-2.11-4.16 3.319 3.319 0 014.16-2.047c2.706.886 5.183 1.477 7.43 1.775L20.15 7.799H3.9A3.9 3.9 0 113.9 0h40.2z" fill="#26A17B"/><g transform="translate(24 24)" fill-rule="nonzero"><circle fill="#1A1B26" cx="12" cy="12" r="12"/><path d="M17 13.08L11.999 20 7 13.08l4.999 2.9L17 13.08zm-5.001-3.164l4.998 2.232-4.998 2.903L7 12.148l4.999-2.232zm0-5.916l4.998 8.148-4.998-2.233L7 12.148 11.999 4z" fill="#FFF"/></g></g></svg>